<?xml version="1.0" encoding="UTF-8" standalone="no"?>
<!-- Created with Inkscape (http://www.inkscape.org/) -->

<svg
   xmlns:dc="http://purl.org/dc/elements/1.1/"
   xmlns:cc="http://creativecommons.org/ns#"
   xmlns:rdf="http://www.w3.org/1999/02/22-rdf-syntax-ns#"
   xmlns:svg="http://www.w3.org/2000/svg"
   xmlns="http://www.w3.org/2000/svg"
   xmlns:sodipodi="http://sodipodi.sourceforge.net/DTD/sodipodi-0.dtd"
   xmlns:inkscape="http://www.inkscape.org/namespaces/inkscape"
   id="svg2"
   height="70"
   width="250"
   version="1.1"
   inkscape:version="0.91 r13725"
   sodipodi:docname="logo.svg">
  <sodipodi:namedview
     pagecolor="#ffffff"
     bordercolor="#666666"
     borderopacity="1"
     objecttolerance="10"
     gridtolerance="10"
     guidetolerance="10"
     inkscape:pageopacity="0"
     inkscape:pageshadow="2"
     inkscape:window-width="1855"
     inkscape:window-height="1056"
     id="namedview3022"
     showgrid="false"
     inkscape:zoom="1.728"
     inkscape:cx="32.986111"
     inkscape:cy="35"
     inkscape:window-x="65"
     inkscape:window-y="24"
     inkscape:window-maximized="1"
     inkscape:current-layer="flowRoot2985" />
  <defs
     id="defs4">
    <clipPath
       id="clipPath40"
       clipPathUnits="userSpaceOnUse">
      <path
         id="path42"
         d="M0,500,500,500,500,0,0,0,0,500z" />
    </clipPath>
  </defs>
  <metadata
     id="metadata7">
    <rdf:RDF>
      <cc:Work
         rdf:about="">
        <dc:format>image/svg+xml</dc:format>
        <dc:type
           rdf:resource="http://purl.org/dc/dcmitype/StillImage" />
        <dc:title />
      </cc:Work>
    </rdf:RDF>
  </metadata>
  <g
     id="layer1"
     transform="translate(0,-982.36218)"
     style="fill:#eaebeb;fill-opacity:1">
    <g
       id="flowRoot2985"
       style="letter-spacing:0px;word-spacing:0px;fill:#eaebeb;fill-opacity:1"
       font-weight="normal"
       transform="translate(47.208645,983.52925)"
       font-stretch="normal"
       line-height="125%"
       font-size="40px"
       font-variant="normal"
       font-family="'逼格青春体简2.0'"
       font-style="normal"
       fill="none">
      <path
         id="path3807"
         d="m34.188,46.969c0,1.5213-2.4946,2.7435-2.4946,2.7435l1.5703,0.03269s4.6118,0.44486,4.6118-2.8737v-27.241c0-0.78912-0.83377-1.719-1.6229-1.7236-2.4746-0.0142-32.205,0-32.205,0v31.68h3.875v-28.086h26.266zm-13.328-1.2812,4.2031,0,2.2656-7.625,2.2656,7.625,4.4062,0-5.1094-11.688,4.875-10.25-4.4062,0-2.1094,6.1875-2.1094-6.1875-4.3594,0,4.8281,10.328-4.75,11.609m-12.891,0,4.5156,0,2.2656-7.625,2.2656,7.625,4.0625,0-4.7656-11.688,4.5312-10.25-4.0625,0-2.1094,6.1875-2.1094-6.1875-4.6719,0,5.1406,10.328-5.0625,11.609"
         style="fill:#eaebeb;fill-opacity:1" />
      <a
         id="a3839"
         transform="translate(0,0.18383981)"
         style="fill:#eaebeb;fill-opacity:1">
        <a
           id="a3842"
           fill="none"
           style="fill:#eaebeb;fill-opacity:1">
          <path
             id="path3809"
             fill="none"
             d="m73.401,24.193-23.613,0,0-2.938,23.613,0,0,2.938,0,0,0,0m-23.613,3.4178,23.613,0,0,3.1589-23.613,0,0-3.1589m11.133,10.26,6.1875,0s-2.3198,4.3836-3.9922,6.1758c-2.057,2.206-7.241,5.426-7.241,5.426h3.0156s6.437-2.6473,8.8281-5.0508c1.7691-1.7782,3.7031-6.5508,3.7031-6.5508h1.875s0.09375,5.5434,0.09375,9.0625c0,0.8168-3.0312,2.5391-3.0312,2.5391h2.2031s5.3763,0.71101,5.332-4.6304c-0.02148-2.59-0.04297-5.7296-0.04297-7.9282,0-0.70798-1.1905-1.6211-1.8984-1.6211-8.4907,0-25.711-0.06472-25.711-0.06472l0.42578-1.7812h-4.1454s0.09485,2.9936-0.28125,4.4219c-0.43777,1.6624-2.25,4.6406-2.25,4.6406l1.8125-0.01563s1.7792-1.3643,2.4438-2.25c0.57931-0.77208,1.2875-2.5938,1.2875-2.5938l6.8246,0.09597s-2.2544,3.6118-3.6172,5.2383c-1.9744,2.3565-6.5547,6.4883-6.5547,6.4883h2.375s4.9058-3.0276,6.9922-4.9883c2.0689-1.9442,5.3672-6.6133,5.3672-6.6133zm13.458-20.077h-27.715s-0.0625,9.7086-0.0625,14.247c0,0.88804,1.6102,1.75,2.9844,1.75h26.941v-13.861c0-1.0403-0.91983-2.1356-2.1476-2.1356z"
             style="fill:#eaebeb;fill-opacity:1" />
        </a>
      </a>
      <path
         id="path3811"
         d="m85.375,18.345,1.6794,3.4517,27.501,0,1.6794-3.4517-30.859,0,0,0,0,0m31.502,20.703-3.9781,0,0.0582,6.8608-22.052,0-0.70312,0,7.2656-12.642,0.46875,0,18.347,0,1.591-3.6285-33.672,0,2.1213,3.6285,6.3162,0,0.85938,0s-4.5227,8.0482-7.7675,13.668c-0.51381,0.88995,0.92399,2.3865,1.9516,2.3865h27.452c0.80662,0,1.7324-0.88295,1.7324-1.6896,0-3.2547,0.009-8.5839,0.009-8.5839"
         style="fill:#eaebeb;fill-opacity:1" />
      <path
         id="path3813"
         d="m124.98,33.571v13.836c0,1.2427,1.5229,2.5,2.7656,2.5h29.266v-14.043c0-1.1155-1.322-2.293-2.4375-2.293h-29.594m24.156-10.031-0.0937,4.2969-25.156,0,1.9375,3.1406,30.672,0,1.6875-3.1406-5.625,0,0.0156-4.2969-3.4375,0m-9.3906-4.1406-14.922,0,2.125,3.125,28.141,0,2-3.125-13.828,0-0.54687-1.6406-3.5156,0,0.54688,1.6406m13.828,24.141,0,3.4531-24.969,0,0-3.4531,24.969,0m0-6.9531,0,3.5-24.969,0,0-3.5,24.969,0m-20.734-8.1094,0.0156-4.9375-3.2812,0-0.0156,4.9375"
         style="fill:#eaebeb;fill-opacity:1" />
      <path
         id="path3815"
         d="m173.02,39.247-4.2031,0s-0.4929,3.259-1.1562,4.7461c-0.69873,1.5664-2.9062,4.2461-2.9062,4.2461h2.5781s3.7235-2.4885,4.7812-4.3711c0.76892-1.3685,0.90625-4.6211,0.90625-4.6211zm20.641,0-4.4062,0s0.98146,3.4242,1.9297,4.9023c1.0367,1.6161,3.9922,4.1523,3.9922,4.1523h2.3906s-2.0203-2.9078-2.7031-4.5273c-0.60664-1.4388-1.2031-4.5273-1.2031-4.5273zm-16.406,9.8672,2.2031,0s4.5-1.4516,4.5-3.6523c0-3.8482,0.125-10.59,0.125-10.59h13.875v-3.5504h-13.875v-7.6996h-4.125v7.6996h-12.078l0.17279-9.3055,28.499,0.008v-3.4723s-19.936,0.03508-29.499,0.03508c-1.2319,0-2.4991,1.4907-2.4991,2.7226,0,4.5405-0.0331,6.8115-0.0331,11.188,0,1.0417,0.98953,2.375,2.0312,2.375h13.406s0.25173,6.5113,0,10.641c-0.0888,1.4568-2.7031,3.6015-2.7031,3.6015z"
         style="fill:#eaebeb;fill-opacity:1" />
      <g
         id="g36"
         transform="matrix(1.1955355,0,0,-1.1955355,-124.61602,228.2295)"
         style="fill:#eaebeb;fill-opacity:1">
        <g
           id="g38"
           fill="none"
           clip-path="url(#clipPath40)"
           style="fill:#eaebeb;fill-opacity:1">
          <g
             id="g44"
             fill="none"
             transform="translate(249.7281,273.316)"
             style="fill:#eaebeb;fill-opacity:1">
            <path
               id="path46"
               fill="none"
               d="m-163.11-105.86c-1.2746-0.38945-2.2796-1.0043-3.051-1.971-1.2244-1.534-1.3566-4.0939-0.30353-5.615,0.64986-0.93849,1.6643-1.3402,2.7351-1.083,1.1005,0.26408,1.734,0.95322,1.8618,2.149,0.0617,0.57805,0.0839,1.1911-0.0401,1.7519-0.34649,1.5666-0.7786,3.1141-1.2023,4.7681m4.2593,0.18952c0.4272-1.8337,0.90842-3.5077,1.1969-5.2142,0.74883-4.431-2.4791-7.2104-5.4978-7.7458-3.5763-0.63435-7.0514,1.7671-7.8794,5.458-1.0817,4.8212,1.2498,9.1715,5.8765,10.965,0.28495,0.11048,0.56853,0.22449,0.95967,0.37932-0.16419,0.6184-0.3158,1.2521-0.5007,1.8762-1.2847,4.3359,2.8422,8.3086,7.1346,7.1613,1.1744-0.31395,2.2979-0.96979,3.3214-1.6536,1.0402-0.69512,1.1275-1.9752,0.40112-2.9016-0.70725-0.90212-1.9332-1.0003-2.9516-0.31027-0.51942,0.35216-1.0936,0.68039-1.6913,0.84826-1.3255,0.37258-2.3198-0.45712-2.1873-1.8317,0.0778-0.8053,0.3244-1.5983,0.54567-2.3826,0.0445-0.1576,0.31104-0.34879,0.48551-0.35968,8.1481-0.50654,15.091-10.931,8.5945-20.677-4.9793-7.4694-15.951-9.0315-23.205-3.3855-10.261,7.9867-8.4021,23.804,3.4419,29.161,0.6072,0.27468,1.3167,0.47861,1.9704,0.45774,0.89752-0.0287,1.556-0.82126,1.6941-1.7217,0.13549-0.88479-0.31611-1.6817-1.1562-2.136-1.1862-0.64142-2.4797-1.1596-3.5132-1.9953-4.2534-3.439-5.8811-7.9402-4.5834-13.244,1.2689-5.1867,4.6075-8.5747,9.9263-9.584,4.9234-0.93419,10.695,1.0212,13.034,6.586,1.8547,4.4135,0.60351,9.1927-4.0675,11.735-0.40479,0.22036-0.86775,0.33391-1.3488,0.51406"
               style="fill:#eaebeb;fill-opacity:1" />
          </g>
        </g>
      </g>
    </g>
  </g>
</svg>
