<svg id="svg2" xmlns:rdf="http://www.w3.org/1999/02/22-rdf-syntax-ns#" xmlns="http://www.w3.org/2000/svg" height="50" width="200" version="1.1" xmlns:cc="http://creativecommons.org/ns#" xmlns:dc="http://purl.org/dc/elements/1.1/">
 <g id="layer1" fill="#eaebeb" transform="matrix(.8 0 0 .8 -.00138874 -788.893)">
  <g id="flowRoot2985" transform="translate(47.2086 983.529)" font-size="40px" line-height="125%" fill="#eaebeb">
   <path id="path3807" d="m30.8789 13.334c-4.36122 0.06107-7.97087 4.26307-6.62695 8.79883 0.221055 0.746134 0.403315 1.50482 0.599609 2.24414-0.467622 0.185105-0.807769 0.321042-1.14844 0.453125-5.53138 2.14419-8.3186 7.34546-7.02539 13.1094 0.989903 4.4126 5.14433 7.28378 9.41992 6.52539 3.60896-0.640089 7.46752-3.96235 6.57227-9.25977-0.344889-2.04018-0.918955-4.04212-1.42969-6.23438 0.575113 0.215376 1.12934 0.351786 1.61328 0.615235 5.58436 3.03941 7.07869 8.7528 4.86133 14.0293-2.79636 6.65292-9.69593 8.99186-15.582 7.875-6.3588-1.2066-10.3502-5.2581-11.8672-11.459-1.55142-6.3408 0.3954-11.7225 5.4805-15.8339 1.2356-0.9991 2.7811-1.618 4.1992-2.3848 1.00436-0.543132 1.5448-1.49494 1.38281-2.55273-0.165103-1.07651-0.952374-2.02428-2.02539-2.05859-0.781522-0.02495-1.62954 0.218485-2.35547 0.546875-14.1599 6.4044-16.3826 25.3148-4.1152 34.8632 8.6724 6.75 21.7893 4.8811 27.7422-4.0488 7.7668-11.6517-0.534-24.1132-10.2754-24.7187-0.2086-0.0131-0.5268-0.2413-0.58-0.4297-0.264536-0.937659-0.559334-1.88684-0.652344-2.84961-0.158408-1.64336 1.03055-2.63488 2.61524-2.18945 0.714572 0.200695 1.4005 0.592652 2.02148 1.01367 1.21753 0.824956 2.68375 0.707423 3.5293-0.371094 0.868413-1.10754 0.763127-2.63771-0.480469-3.46875-1.22363-0.81752-2.56667-1.60122-3.9707-1.97656-0.641465-0.171455-1.27931-0.247005-1.90234-0.238282zm155.529 5.5918 0.54688 1.64062h-14.9219l2.125 3.125h28.1406l2-3.125h-13.8281l-0.54687-1.64062h-3.51563zm-135.152 0.148438v31.6797h3.875v-25.7754l5.10938 10.2656-5.0625 11.6094h4.51562l2.26562-7.625 2.26562 7.625h3.84375v0.002h4.20312l2.26562-7.625 2.26562 7.625h4.40625l-5.10938-11.6895 4.875-10.25h-4.40625l-2.10938 6.1875-2.10938-6.1875h-4.29688-4.0625l-2.10938 6.1875-2.10938-6.1875h-4.64062v-2.24805h26.2656v25.4688c0 1.5213-2.49414 2.74219-2.49414 2.74219l1.57031 0.0332s4.61133 0.445513 4.61133-2.87305v-27.2422c0-0.78912-0.833916-1.71806-1.62305-1.72266-2.4746-0.0142-32.2051 0-32.2051 0zm42.6172 0.07031s-0.0625 9.70965-0.0625 14.248c0 0.54324 0.604231 1.07388 1.38672 1.40625h-1.4668s0.09485 2.99358-0.28125 4.42188c-0.43777 1.6624-2.25 4.64062-2.25 4.64062l1.8125-0.01563s1.78071-1.3643 2.44531-2.25c0.5791-0.772 1.2869-2.5956 1.2869-2.5956l6.82422 0.09766s-2.25439 3.61178-3.61719 5.23828c-1.9744 2.3565-6.55469 6.48828-6.55469 6.48828h2.375s4.90579-3.02758 6.99219-4.98828c2.0689-1.9442 5.36719-6.61328 5.36719-6.61328h6.18555s-2.31979 4.38358-3.99219 6.17578c-2.057 2.206-7.24024 5.42578-7.24024 5.42578h3.01563s6.43702-2.64728 8.82812-5.05078c1.7691-1.7782 3.70313-6.55078 3.70313-6.55078h1.875s0.0937 5.5434 0.0937 9.0625c0 0.8168-3.03125 2.53906-3.03125 2.53906h2.20312s5.37634 0.71055 5.33204-4.63086c-0.0215-2.59-0.043-5.72913-0.043-7.92773 0-0.70798-1.19054-1.62109-1.89844-1.62109-8.4907 0-25.7109-0.06641-25.7109-0.06641l0.34375-1.43555h25.9414v-13.8613c0-1.0403-0.92067-2.13672-2.14844-2.13672h-27.7148zm38.7109 0.367188 1.67969 3.45117h27.5l1.67969-3.45117h-30.8594zm111.176 0.207031s-19.935 0.03516-29.498 0.03516c-1.2319 0-2.5 1.49076-2.5 2.72266 0 4.5405-0.0332 6.811-0.0332 11.1875 0 1.0417 0.98958 2.375 2.03125 2.375h13.4062s0.25173 6.51092 0 10.6406c-0.0888 1.4568-2.70313 3.60156-2.70313 3.60156h2.20313s4.5-1.45164 4.5-3.65234c0-3.8482 0.125-10.5898 0.125-10.5898h13.875v-3.55078h-13.875v-7.69922h-4.125v7.69922h-12.0781l0.17383-9.30469 28.498 0.0078v-3.47266zm-146.764 2.88672h23.6133v2.9375h-23.6133v-2.9375zm79.7871 2.10156-0.0137 4.29688h-5.67383l1.9375 3.14062h30.6719l1.6875-3.14062h-5.625l0.0156-4.29688h-3.4375l-0.0937 4.29688h-16.2012l0.0137-4.29688h-3.28125zm-108.762 0.277344 4.79688 10.2598-4.64062 11.3418-4.65625-11.4199 4.5-10.1816zm28.9746 3.97656h23.6133v3.16016h-23.6133v-3.16016zm-70.8477 0.236328c0.506548 1.97742 1.02326 3.82629 1.4375 5.69922 0.148244 0.670456 0.120635 1.40462 0.04687 2.0957-0.152788 1.4296-0.910875 2.25264-2.22656 2.56836-1.28018 0.307492-2.4926-0.172924-3.26953-1.29492-1.25898-1.81853-1.10053-4.87894 0.363281-6.71289 0.922236-1.15572 2.12461-1.88987 3.64844-2.35547zm105.264 1.60742 2.12109 3.62891h6.31641 0.85937s-4.52277 8.04817-7.76757 13.668c-0.51381 0.88995 0.92356 2.38672 1.95117 2.38672h27.4531c0.80662 0 1.73243-0.882803 1.73242-1.68945 0-3.2547 0.008-8.58398 0.008-8.58398h-3.97852l0.0586 6.86133h-22.0508-0.70312l7.26562-12.6426h0.46875 18.3457l1.59179-3.62891h-33.6719zm40.7773 3.93359v13.8359c0 1.2427 1.52293 2.5 2.76563 2.5h29.2656v-14.043c0-1.1155-1.322-2.29297-2.4375-2.29297h-29.5938zm3.625 3.01562h24.9688v3.5h-24.9688v-3.5zm40.2109 2.66016s-0.49295 3.25899-1.15625 4.74609c-0.69873 1.5664-2.90625 4.24609-2.90625 4.24609h2.57813s3.72355-2.48849 4.78125-4.37109c0.76892-1.3685 0.90625-4.62109 0.90625-4.62109h-4.20313zm20.4375 0s0.98145 3.42424 1.92969 4.90234c1.0367 1.6161 3.99219 4.15234 3.99219 4.15234h2.39062s-2.02032-2.90784-2.70312-4.52734c-0.60664-1.4388-1.20313-4.52734-1.20313-4.52734h-4.40625zm-60.6484 4.29297h24.9688v3.45312h-24.9688v-3.45312z" transform="translate(-47.2086 -1.16707)" fill="#eaebeb"/>
  </g>
 </g>
</svg>
