<?xml version="1.0" encoding="UTF-8" standalone="no"?>
<!-- Created with Inkscape (http://www.inkscape.org/) -->

<svg
   xmlns:dc="http://purl.org/dc/elements/1.1/"
   xmlns:cc="http://creativecommons.org/ns#"
   xmlns:rdf="http://www.w3.org/1999/02/22-rdf-syntax-ns#"
   xmlns:svg="http://www.w3.org/2000/svg"
   xmlns="http://www.w3.org/2000/svg"
   xmlns:sodipodi="http://sodipodi.sourceforge.net/DTD/sodipodi-0.dtd"
   xmlns:inkscape="http://www.inkscape.org/namespaces/inkscape"
   id="svg2"
   height="70"
   width="250"
   version="1.1"
   inkscape:version="0.91 r13725"
   sodipodi:docname="logo.svg">
  <sodipodi:namedview
     pagecolor="#ffffff"
     bordercolor="#666666"
     borderopacity="1"
     objecttolerance="10"
     gridtolerance="10"
     guidetolerance="10"
     inkscape:pageopacity="0"
     inkscape:pageshadow="2"
     inkscape:window-width="1855"
     inkscape:window-height="1056"
     id="namedview3022"
     showgrid="false"
     inkscape:zoom="1.728"
     inkscape:cx="76.109719"
     inkscape:cy="-131.71447"
     inkscape:window-x="65"
     inkscape:window-y="24"
     inkscape:window-maximized="1"
     inkscape:current-layer="flowRoot2985" />
  <defs
     id="defs4">
    <clipPath
       id="clipPath40"
       clipPathUnits="userSpaceOnUse">
      <path
         id="path42"
         d="M0,500,500,500,500,0,0,0,0,500z" />
    </clipPath>
  </defs>
  <metadata
     id="metadata7">
    <rdf:RDF>
      <cc:Work
         rdf:about="">
        <dc:format>image/svg+xml</dc:format>
        <dc:type
           rdf:resource="http://purl.org/dc/dcmitype/StillImage" />
        <dc:title />
      </cc:Work>
    </rdf:RDF>
  </metadata>
  <g
     id="layer1"
     transform="translate(0,-982.36218)"
     style="fill:#eaebeb;fill-opacity:1">
    <g
       id="flowRoot2985"
       style="letter-spacing:0px;word-spacing:0px;fill:#eaebeb;fill-opacity:1"
       font-weight="normal"
       transform="translate(47.208645,983.52925)"
       font-stretch="normal"
       line-height="125%"
       font-size="40px"
       font-variant="normal"
       font-family="'逼格青春体简2.0'"
       font-style="normal"
       fill="none">
      <path
         style="fill:#eaebeb;fill-opacity:1"
         d="M 30.878906 13.333984 C 26.517685 13.39505 22.908037 17.597056 24.251953 22.132812 C 24.473008 22.878946 24.655268 23.637634 24.851562 24.376953 C 24.38394 24.562058 24.043793 24.697995 23.703125 24.830078 C 18.171741 26.974271 15.384523 32.175538 16.677734 37.939453 C 17.667637 42.352055 21.822063 45.223232 26.097656 44.464844 C 29.706619 43.824755 33.565174 40.502496 32.669922 35.205078 C 32.325033 33.164897 31.750967 31.162957 31.240234 28.970703 C 31.815347 29.186079 32.369575 29.322489 32.853516 29.585938 C 38.437874 32.625348 39.932203 38.338739 37.714844 43.615234 C 34.918486 50.26815 28.018912 52.607092 22.132812 51.490234 C 15.773998 50.28358 11.78264 46.232134 10.265625 40.03125 C 8.714178 33.690369 10.661003 28.308712 15.746094 24.197266 C 16.98168 23.198157 18.527168 22.57934 19.945312 21.8125 C 20.94967 21.269368 21.490109 20.317564 21.328125 19.259766 C 21.163022 18.183258 20.375751 17.235482 19.302734 17.201172 C 18.521212 17.176221 17.673195 17.419657 16.947266 17.748047 C 2.7873426 24.152531 0.56464125 43.062944 12.832031 52.611328 C 21.504446 59.361321 34.621288 57.492433 40.574219 48.5625 C 48.341015 36.910811 40.040171 24.449336 30.298828 23.84375 C 30.090243 23.83073 29.77195 23.602479 29.71875 23.414062 C 29.454214 22.476403 29.159416 21.527217 29.066406 20.564453 C 28.907998 18.921093 30.096959 17.929568 31.681641 18.375 C 32.396213 18.575695 33.08214 18.967652 33.703125 19.388672 C 34.920658 20.213628 36.386879 20.096095 37.232422 19.017578 C 38.100835 17.910034 37.995549 16.379868 36.751953 15.548828 C 35.528322 14.731308 34.185287 13.947604 32.78125 13.572266 C 32.139785 13.400811 31.501938 13.325261 30.878906 13.333984 z M 186.4082 18.925781 L 186.95508 20.566406 L 172.0332 20.566406 L 174.1582 23.691406 L 202.29883 23.691406 L 204.29883 20.566406 L 190.4707 20.566406 L 189.92383 18.925781 L 186.4082 18.925781 z M 51.255859 19.074219 L 51.255859 50.753906 L 55.130859 50.753906 L 55.130859 24.978516 L 60.240234 35.244141 L 55.177734 46.853516 L 59.693359 46.853516 L 61.958984 39.228516 L 64.224609 46.853516 L 68.068359 46.853516 L 68.068359 46.855469 L 72.271484 46.855469 L 74.537109 39.230469 L 76.802734 46.855469 L 81.208984 46.855469 L 76.099609 35.166016 L 80.974609 24.916016 L 76.568359 24.916016 L 74.458984 31.103516 L 72.349609 24.916016 L 68.052734 24.916016 L 63.990234 24.916016 L 61.880859 31.103516 L 59.771484 24.916016 L 55.130859 24.916016 L 55.130859 22.667969 L 81.396484 22.667969 L 81.396484 48.136719 C 81.396484 49.658019 78.902344 50.878906 78.902344 50.878906 L 80.472656 50.912109 C 80.472656 50.912109 85.083984 51.357622 85.083984 48.039062 L 85.083984 20.796875 C 85.083984 20.007755 84.250068 19.078819 83.460938 19.074219 C 80.986338 19.060019 51.255859 19.074219 51.255859 19.074219 z M 93.873047 19.144531 C 93.873047 19.144531 93.810547 28.854178 93.810547 33.392578 C 93.810547 33.935818 94.414778 34.466454 95.197266 34.798828 L 93.730469 34.798828 C 93.730469 34.798828 93.825319 37.792403 93.449219 39.220703 C 93.011449 40.883103 91.199219 43.861328 91.199219 43.861328 L 93.011719 43.845703 C 93.011719 43.845703 94.792431 42.481403 95.457031 41.595703 C 96.036341 40.823623 96.744141 39 96.744141 39 L 103.56836 39.097656 C 103.56836 39.097656 101.31397 42.709438 99.951172 44.335938 C 97.976772 46.692437 93.396484 50.824219 93.396484 50.824219 L 95.771484 50.824219 C 95.771484 50.824219 100.67727 47.796638 102.76367 45.835938 C 104.83257 43.891737 108.13086 39.222656 108.13086 39.222656 L 114.31641 39.222656 C 114.31641 39.222656 111.99662 43.606237 110.32422 45.398438 C 108.26722 47.604438 103.08398 50.824219 103.08398 50.824219 L 106.09961 50.824219 C 106.09961 50.824219 112.53663 48.176938 114.92773 45.773438 C 116.69683 43.995238 118.63086 39.222656 118.63086 39.222656 L 120.50586 39.222656 C 120.50586 39.222656 120.59961 44.766056 120.59961 48.285156 C 120.59961 49.101956 117.56836 50.824219 117.56836 50.824219 L 119.77148 50.824219 C 119.77148 50.824219 125.14782 51.534769 125.10352 46.193359 C 125.08204 43.603359 125.06055 40.464225 125.06055 38.265625 C 125.06055 37.557645 123.87001 36.644531 123.16211 36.644531 C 114.67141 36.644531 97.451172 36.578125 97.451172 36.578125 L 97.794922 35.142578 L 123.73633 35.142578 L 123.73633 21.28125 C 123.73633 20.24095 122.81566 19.144531 121.58789 19.144531 L 93.873047 19.144531 z M 132.58398 19.511719 L 134.26367 22.962891 L 161.76367 22.962891 L 163.44336 19.511719 L 132.58398 19.511719 z M 243.75977 19.71875 C 243.75977 19.71875 223.82472 19.753906 214.26172 19.753906 C 213.02982 19.753906 211.76172 21.244663 211.76172 22.476562 C 211.76172 27.017062 211.72852 29.287562 211.72852 33.664062 C 211.72852 34.705762 212.7181 36.039062 213.75977 36.039062 L 227.16602 36.039062 C 227.16602 36.039062 227.41775 42.549987 227.16602 46.679688 C 227.07722 48.136488 224.46289 50.28125 224.46289 50.28125 L 226.66602 50.28125 C 226.66602 50.28125 231.16602 48.829606 231.16602 46.628906 C 231.16602 42.780706 231.29102 36.039062 231.29102 36.039062 L 245.16602 36.039062 L 245.16602 32.488281 L 231.29102 32.488281 L 231.29102 24.789062 L 227.16602 24.789062 L 227.16602 32.488281 L 215.08789 32.488281 L 215.26172 23.183594 L 243.75977 23.191406 L 243.75977 19.71875 z M 96.996094 22.605469 L 120.60938 22.605469 L 120.60938 25.542969 L 96.996094 25.542969 L 96.996094 22.605469 z M 176.7832 24.707031 L 176.76953 29.003906 L 171.0957 29.003906 L 173.0332 32.144531 L 203.70508 32.144531 L 205.39258 29.003906 L 199.76758 29.003906 L 199.7832 24.707031 L 196.3457 24.707031 L 196.25195 29.003906 L 180.05078 29.003906 L 180.06445 24.707031 L 176.7832 24.707031 z M 68.021484 24.984375 L 72.818359 35.244141 L 68.177734 46.585938 L 63.521484 35.166016 L 68.021484 24.984375 z M 96.996094 28.960938 L 120.60938 28.960938 L 120.60938 32.121094 L 96.996094 32.121094 L 96.996094 28.960938 z M 26.148438 29.197266 C 26.654986 31.174682 27.171696 33.023558 27.585938 34.896484 C 27.734182 35.56694 27.706573 36.301108 27.632812 36.992188 C 27.480024 38.421785 26.721937 39.24483 25.40625 39.560547 C 24.126071 39.868039 22.91365 39.387623 22.136719 38.265625 C 20.877736 36.447096 21.036186 33.386685 22.5 31.552734 C 23.422236 30.397009 24.624607 29.662867 26.148438 29.197266 z M 131.41211 30.804688 L 133.5332 34.433594 L 139.84961 34.433594 L 140.70898 34.433594 C 140.70898 34.433594 136.18621 42.481762 132.94141 48.101562 C 132.4276 48.991512 133.86497 50.488281 134.89258 50.488281 L 162.3457 50.488281 C 163.15232 50.488281 164.07813 49.605478 164.07812 48.798828 C 164.07812 45.544128 164.08594 40.214844 164.08594 40.214844 L 160.10742 40.214844 L 160.16602 47.076172 L 138.11523 47.076172 L 137.41211 47.076172 L 144.67773 34.433594 L 145.14648 34.433594 L 163.49219 34.433594 L 165.08398 30.804688 L 131.41211 30.804688 z M 172.18945 34.738281 L 172.18945 48.574219 C 172.18945 49.816919 173.71238 51.074219 174.95508 51.074219 L 204.2207 51.074219 L 204.2207 37.03125 C 204.2207 35.91575 202.8987 34.738281 201.7832 34.738281 L 172.18945 34.738281 z M 175.81445 37.753906 L 200.7832 37.753906 L 200.7832 41.253906 L 175.81445 41.253906 L 175.81445 37.753906 z M 216.02539 40.414062 C 216.02539 40.414062 215.53244 43.673056 214.86914 45.160156 C 214.17041 46.726556 211.96289 49.40625 211.96289 49.40625 L 214.54102 49.40625 C 214.54102 49.40625 218.26457 46.917756 219.32227 45.035156 C 220.09119 43.666656 220.22852 40.414062 220.22852 40.414062 L 216.02539 40.414062 z M 236.46289 40.414062 C 236.46289 40.414062 237.44434 43.838306 238.39258 45.316406 C 239.42928 46.932506 242.38477 49.46875 242.38477 49.46875 L 244.77539 49.46875 C 244.77539 49.46875 242.75507 46.560906 242.07227 44.941406 C 241.46563 43.502606 240.86914 40.414062 240.86914 40.414062 L 236.46289 40.414062 z M 175.81445 44.707031 L 200.7832 44.707031 L 200.7832 48.160156 L 175.81445 48.160156 L 175.81445 44.707031 z "
         transform="translate(-47.208645,-1.16707)"
         id="path3807" />
    </g>
  </g>
</svg>
